<svg width="175" height="127" viewBox="0 0 175 127" fill="none" xmlns="http://www.w3.org/2000/svg">
<path fill-rule="evenodd" clip-rule="evenodd" d="M23.6521 102.876C25.5561 104.781 28.1384 105.851 30.831 105.851L30.8845 105.905H54.3689L49.5864 113.924L43.8158 123.6C43.2625 124.521 42.4785 125.282 41.5413 125.807C40.6042 126.332 39.5464 126.603 38.4724 126.594H21.347C18.5419 126.606 15.7624 126.059 13.1707 124.985C10.5791 123.911 8.22672 122.332 6.25145 120.339C4.2633 118.36 2.68755 116.007 1.61445 113.414C0.541345 110.822 -0.00739621 108.042 7.52819e-05 105.237V21.3849C7.52819e-05 15.7135 2.25159 10.2744 6.25993 6.26416C10.2683 2.25389 15.7051 0.000965021 21.3737 0.000965021H38.4189C39.4929 -0.00836149 40.5507 0.262934 41.4878 0.787984C42.425 1.31303 43.209 2.07365 43.7623 2.9947L49.5329 12.6709L54.3154 20.6899H30.831C28.136 20.697 25.554 21.773 23.6508 23.6822C21.7476 25.5913 20.679 28.1776 20.6791 30.874V95.6941C20.6791 98.388 21.7481 100.972 23.6521 102.876ZM135.761 0.00140862H152.781C158.44 0.00139092 163.868 2.24697 167.875 6.24568C171.882 10.2444 174.14 15.6697 174.154 21.3318V105.157C174.154 110.828 171.902 116.267 167.894 120.278C163.885 124.288 158.449 126.541 152.781 126.541H135.761C134.687 126.55 133.63 126.279 132.693 125.754C131.755 125.229 130.971 124.468 130.418 123.547L124.647 113.871L119.865 105.852H54.2477L59.0302 97.8329L63.7859 89.8139C64.6361 88.3888 65.8411 87.2088 67.2834 86.3889C68.7257 85.5691 70.3561 85.1374 72.015 85.1361H102.125C103.784 85.1374 105.414 85.5691 106.856 86.3889C108.298 87.2088 109.503 88.3888 110.354 89.8139L115.109 97.8329L119.892 105.852H143.349C144.683 105.852 146.003 105.589 147.234 105.079C148.466 104.568 149.586 103.82 150.528 102.877C151.471 101.934 152.219 100.814 152.729 99.5816C153.239 98.3493 153.502 97.0284 153.502 95.6945V30.8744C153.502 28.1781 152.433 25.5917 150.53 23.6826C148.626 21.7735 146.044 20.6974 143.349 20.6903H119.892L115.109 28.7093L110.354 36.7283C109.503 38.1534 108.298 39.3335 106.856 40.1534C105.414 40.9733 103.784 41.4048 102.125 41.406H72.015C70.3561 41.4048 68.7257 40.9733 67.2834 40.1534C65.8411 39.3335 64.6361 38.1534 63.7859 36.7283L59.0302 28.7093L54.2477 20.6903H119.865L124.647 12.6714L130.418 2.99515C130.971 2.07409 131.755 1.31348 132.693 0.788427C133.63 0.263377 134.687 -0.00791789 135.761 0.00140862Z" fill="#3A2DF8"/>
</svg>
